<?xml version="1.0" standalone="no"?>
<!DOCTYPE svg PUBLIC "-//W3C//DTD SVG 20010904//EN"
 "http://www.w3.org/TR/2001/REC-SVG-20010904/DTD/svg10.dtd">
<svg version="1.0" xmlns="http://www.w3.org/2000/svg"
 width="1123.000000pt" height="1123.000000pt" viewBox="0 0 1123.000000 1123.000000"
 preserveAspectRatio="xMidYMid meet">
<metadata>
Created by potrace 1.14, written by Peter Selinger 2001-2017
</metadata>
<g transform="translate(0.000000,1123.000000) scale(0.100000,-0.100000)"
fill="#000000" stroke="none">
<path d="M5468 9405 c-2 -2 -46 -6 -98 -9 -122 -7 -194 -13 -228 -20 -15 -3
-49 -8 -77 -11 -54 -6 -90 -12 -90 -15 0 -1 -11 -3 -25 -5 -14 -1 -50 -7 -80
-14 -30 -6 -64 -13 -75 -15 -11 -2 -40 -9 -65 -16 -25 -7 -52 -14 -60 -15 -48
-11 -220 -64 -240 -75 -14 -7 -26 -13 -27 -12 -14 8 -285 -103 -428 -175 -112
-56 -238 -124 -245 -132 -3 -4 -18 -12 -33 -19 -15 -6 -33 -17 -40 -22 -7 -6
-52 -37 -102 -70 -120 -79 -125 -83 -141 -97 -7 -7 -17 -13 -23 -13 -6 0 -11
-4 -11 -8 0 -5 -20 -23 -45 -41 -24 -17 -50 -37 -57 -44 -8 -7 -43 -37 -78
-67 -123 -104 -263 -243 -392 -388 -56 -64 -208 -263 -266 -348 -39 -59 -82
-126 -82 -129 0 -2 -13 -23 -29 -47 -15 -24 -44 -72 -62 -108 -19 -36 -36 -67
-39 -70 -3 -3 -16 -30 -30 -60 -13 -30 -30 -62 -37 -71 -7 -8 -13 -20 -13 -26
0 -6 -15 -44 -34 -85 -47 -102 -140 -350 -151 -403 -1 -5 -7 -30 -14 -55 -7
-25 -15 -52 -17 -60 -2 -8 -10 -38 -18 -67 -8 -29 -17 -65 -20 -80 -7 -38 -15
-80 -26 -128 -5 -22 -12 -62 -16 -90 -3 -27 -8 -59 -10 -70 -3 -11 -7 -42 -10
-70 -2 -27 -7 -66 -9 -85 -22 -186 -23 -544 -1 -740 2 -19 7 -62 10 -95 3 -33
8 -71 11 -85 3 -14 7 -38 10 -55 3 -26 39 -208 50 -258 33 -147 130 -446 180
-554 8 -17 15 -35 15 -40 0 -4 25 -59 55 -121 30 -62 55 -115 55 -117 0 -2 31
-56 68 -122 38 -65 75 -129 83 -143 8 -14 17 -27 20 -30 3 -3 16 -24 29 -47
13 -24 27 -43 32 -43 4 0 8 -7 8 -15 0 -8 4 -15 9 -15 5 0 12 -8 16 -19 3 -10
13 -28 23 -38 9 -11 28 -35 42 -54 59 -78 181 -228 226 -276 77 -82 215 -223
220 -223 2 0 16 -12 32 -27 45 -44 141 -126 212 -181 105 -82 112 -87 185
-137 39 -26 78 -54 88 -63 9 -8 17 -12 17 -9 0 3 30 -14 66 -39 37 -24 73 -44
80 -44 8 0 14 -4 14 -10 0 -5 5 -10 10 -10 6 0 28 -11 50 -25 22 -14 46 -25
54 -25 8 0 16 -4 18 -9 4 -12 201 -105 338 -159 91 -36 315 -112 350 -118 14
-3 32 -7 40 -10 32 -13 217 -55 300 -70 53 -9 96 -16 115 -19 35 -6 198 -25
248 -29 27 -2 50 -6 53 -9 3 -3 19 -1 35 3 16 5 29 5 29 1 0 -5 12 -7 26 -5
19 2 24 -1 20 -12 -5 -12 266 -14 1959 -14 1081 0 1965 3 1965 8 0 4 -22 30
-48 58 -26 27 -81 88 -122 133 -41 46 -86 96 -100 111 -14 15 -59 65 -100 111
-41 45 -84 93 -95 105 -11 12 -49 55 -85 95 -36 40 -82 91 -103 113 -21 23
-56 61 -77 86 -38 44 -58 67 -172 189 -32 33 -56 61 -54 61 2 0 -20 25 -50 57
-30 31 -54 61 -54 67 0 6 19 32 43 57 62 68 126 144 182 218 58 78 57 77 91
119 14 17 22 32 17 32 -4 0 -3 4 2 8 14 10 65 79 65 88 0 4 11 22 25 40 14 18
25 37 25 43 0 6 5 11 10 11 6 0 10 4 10 9 0 5 23 49 51 98 28 48 52 93 53 99
1 7 7 18 13 25 9 12 64 124 68 139 1 3 11 25 23 50 46 98 138 345 157 425 1 6
5 17 8 25 14 35 35 120 30 120 -3 0 0 7 7 15 7 9 10 18 7 22 -4 3 -3 11 2 17
5 6 11 30 15 54 3 24 8 47 11 52 3 6 8 24 10 42 4 32 19 118 29 168 3 13 8 49
11 80 3 31 7 64 9 75 24 128 25 644 1 805 -2 19 -7 58 -10 85 -3 28 -8 61 -10
75 -3 14 -8 41 -10 60 -3 19 -7 46 -10 60 -3 14 -10 50 -15 80 -6 30 -19 89
-31 130 -19 73 -24 93 -33 135 -2 11 -10 34 -16 50 -6 17 -13 37 -15 45 -4 19
-44 138 -55 165 -7 18 -20 52 -25 65 -29 85 -154 353 -167 358 -4 2 -8 11 -9
20 0 10 -9 31 -19 47 -11 17 -27 46 -37 65 -9 19 -20 37 -24 40 -3 3 -19 29
-35 58 -15 28 -32 52 -36 52 -4 0 -8 6 -8 14 0 8 -6 21 -12 28 -7 7 -35 47
-63 87 -27 41 -71 102 -97 135 -27 34 -54 68 -60 77 -81 105 -272 308 -405
429 -61 56 -188 161 -268 220 -22 16 -45 33 -50 38 -29 23 -201 135 -280 181
-49 29 -97 57 -105 62 -35 21 -282 141 -296 143 -8 1 -20 8 -26 14 -7 7 -18
12 -25 12 -7 0 -21 4 -31 9 -64 34 -334 124 -484 162 -21 5 -55 13 -75 19
-109 27 -336 66 -443 75 -30 3 -80 7 -110 10 -60 6 -437 14 -442 10z m200
-1467 c23 -45 51 -91 59 -97 11 -8 32 -43 39 -63 4 -10 10 -18 15 -18 5 0 9
-4 9 -10 0 -5 35 -63 78 -129 146 -227 231 -361 232 -366 2 -6 127 -198 139
-212 6 -7 11 -14 11 -17 0 -9 104 -171 112 -174 5 -2 8 -8 8 -13 0 -10 5 -17
68 -111 18 -25 32 -51 32 -57 0 -6 4 -11 9 -11 5 0 11 -8 15 -17 3 -10 28 -52
56 -93 27 -41 53 -82 57 -90 4 -8 15 -24 25 -34 10 -11 18 -24 18 -28 0 -5 8
-21 19 -36 10 -15 40 -61 66 -102 77 -121 137 -213 156 -242 11 -15 19 -32 19
-38 0 -5 4 -10 9 -10 5 0 11 -8 14 -17 4 -10 52 -88 107 -173 56 -85 104 -162
108 -170 3 -8 14 -24 24 -34 10 -11 18 -26 18 -33 0 -7 5 -13 10 -13 6 0 10
-7 10 -15 0 -8 5 -15 10 -15 6 0 10 -6 10 -13 0 -7 9 -23 20 -35 12 -12 18
-22 15 -22 -3 0 5 -15 19 -33 15 -19 26 -39 26 -45 0 -6 3 -12 8 -14 7 -3 132
-195 132 -204 0 -3 5 -10 11 -17 5 -7 50 -75 99 -152 49 -77 93 -145 97 -151
15 -19 33 -49 46 -74 6 -14 20 -34 29 -44 10 -11 18 -25 18 -32 0 -7 4 -14 8
-16 7 -3 119 -174 147 -227 6 -10 17 -26 24 -35 11 -13 11 -17 0 -20 -8 -3
-128 -7 -268 -10 -139 -3 -255 -7 -258 -10 -3 -3 -14 -1 -25 5 -10 5 -24 6
-31 2 -6 -4 -82 -8 -167 -10 -190 -3 -525 -10 -805 -18 -248 -6 -566 -14 -830
-20 -104 -2 -282 -6 -395 -9 -113 -3 -315 -8 -450 -11 -501 -12 -560 -14 -570
-20 -5 -3 -10 -3 -10 2 0 4 -17 7 -37 6 -21 -1 -38 -2 -38 -3 0 -2 -124 -5
-368 -10 -65 -1 -121 0 -124 4 -3 3 -1 11 4 18 6 7 60 102 122 210 134 237
139 247 181 323 18 33 38 67 44 75 7 8 18 29 26 45 8 17 17 32 20 35 3 3 15
23 27 45 31 59 60 111 108 195 97 168 106 186 112 203 3 9 9 17 14 17 5 0 9 6
9 14 0 7 7 19 15 26 8 7 13 15 11 19 -2 3 2 15 9 25 13 18 17 18 82 2 37 -9
77 -18 88 -21 11 -2 65 -15 119 -30 55 -14 109 -27 120 -29 12 -2 28 -7 36
-10 8 -3 26 -8 40 -10 32 -6 -27 8 628 -156 310 -77 571 -142 580 -144 9 -1
24 -6 32 -9 13 -5 122 -31 175 -42 11 -3 47 -12 80 -20 33 -9 67 -17 75 -19 8
-2 33 -9 55 -14 22 -6 52 -13 67 -16 15 -2 32 -7 37 -11 6 -3 25 26 42 65 18
38 36 70 41 70 4 0 8 7 8 15 0 8 9 30 19 49 l20 34 -46 39 c-26 21 -62 51 -82
68 -20 16 -46 40 -58 52 -12 13 -25 23 -28 23 -4 0 -41 29 -83 65 -94 80 -139
119 -172 146 -14 11 -36 30 -50 42 -14 12 -52 44 -85 72 -33 27 -65 54 -71 60
-6 5 -25 21 -43 35 -17 14 -46 38 -64 53 -18 16 -45 38 -60 50 -15 12 -42 35
-60 50 -18 16 -79 68 -137 115 -58 48 -112 94 -120 102 -9 8 -31 26 -50 40
-18 14 -40 32 -49 42 -9 9 -43 38 -76 65 -65 52 -86 69 -113 94 -9 8 -70 59
-134 113 -124 103 -124 103 -86 158 10 14 18 28 18 31 0 2 28 54 63 114 35 60
67 116 71 124 3 8 20 37 36 64 16 28 37 64 45 80 9 17 25 46 37 65 11 19 46
80 76 135 31 55 58 102 61 105 4 3 17 25 30 50 13 25 35 68 50 95 14 28 32 54
39 58 6 4 12 13 12 20 0 7 18 44 41 82 23 39 53 93 68 120 47 84 66 115 72
115 3 0 11 -10 17 -22z"/>
</g>
</svg>
